<?xml version="1.0" encoding="UTF-8" standalone="no"?>
<!DOCTYPE svg PUBLIC "-//W3C//DTD SVG 1.1//EN"
 "http://www.w3.org/Graphics/SVG/1.1/DTD/svg11.dtd">
<!-- Generated by graphviz version 14.1.5 (20260411.2331)
 -->
<!-- Title: ER Pages: 1 -->
<svg width="2736pt" height="1447pt"
 viewBox="0.00 0.00 2736.00 1447.00" xmlns="http://www.w3.org/2000/svg" xmlns:xlink="http://www.w3.org/1999/xlink">
<g id="graph0" class="graph" transform="scale(1 1) rotate(0) translate(25.2 1422.08)">
<title>ER</title>
<polygon fill="white" stroke="none" points="-25.2,25.2 -25.2,-1422.08 2711.07,-1422.08 2711.07,25.2 -25.2,25.2"/>
<text xml:space="preserve" text-anchor="middle" x="1342.94" y="-1370.08" font-family="Microsoft YaHei" font-size="24.00">智能问答系统 ER 图（优化逻辑模型）</text>
<g id="clust1" class="cluster">
<title>cluster_chat</title>
<path fill="white" stroke="#9dc3e6" d="M749,-8C749,-8 1794,-8 1794,-8 1800,-8 1806,-14 1806,-20 1806,-20 1806,-900.5 1806,-900.5 1806,-906.5 1800,-912.5 1794,-912.5 1794,-912.5 749,-912.5 749,-912.5 743,-912.5 737,-906.5 737,-900.5 737,-900.5 737,-20 737,-20 737,-14 743,-8 749,-8"/>
<text xml:space="preserve" text-anchor="middle" x="1271.5" y="-895.2" font-family="Microsoft YaHei" font-size="14.00">对话与流式问答</text>
</g>
<g id="clust2" class="cluster">
<title>cluster_config</title>
<path fill="white" stroke="#a9d18e" d="M20,-659C20,-659 717,-659 717,-659 723,-659 729,-665 729,-671 729,-671 729,-1196.25 729,-1196.25 729,-1202.25 723,-1208.25 717,-1208.25 717,-1208.25 20,-1208.25 20,-1208.25 14,-1208.25 8,-1202.25 8,-1196.25 8,-1196.25 8,-671 8,-671 8,-665 14,-659 20,-659"/>
<text xml:space="preserve" text-anchor="middle" x="368.5" y="-1190.95" font-family="Microsoft YaHei" font-size="14.00">运行配置与管理</text>
</g>
<g id="clust3" class="cluster">
<title>cluster_retrieval</title>
<path fill="white" stroke="#ffd966" d="M1826,-636.25C1826,-636.25 2310,-636.25 2310,-636.25 2316,-636.25 2322,-642.25 2322,-648.25 2322,-648.25 2322,-855 2322,-855 2322,-861 2316,-867 2310,-867 2310,-867 1826,-867 1826,-867 1820,-867 1814,-861 1814,-855 1814,-855 1814,-648.25 1814,-648.25 1814,-642.25 1820,-636.25 1826,-636.25"/>
<text xml:space="preserve" text-anchor="middle" x="2068" y="-849.7" font-family="Microsoft YaHei" font-size="14.00">检索体验测试</text>
</g>
<!-- conversations -->
<g id="node1" class="node">
<title>conversations</title>
<polygon fill="#5b9bd5" stroke="none" points="782.38,-770.38 782.38,-793.12 959.62,-793.12 959.62,-770.38 782.38,-770.38"/>
<text xml:space="preserve" text-anchor="start" x="828.62" y="-780.38" font-family="Microsoft YaHei" font-weight="bold" font-size="9.20" fill="white">conversations 会话</text>
<text xml:space="preserve" text-anchor="start" x="787.38" y="-755.62" font-family="Microsoft YaHei" font-size="9.20">PK id : uuid</text>
<text xml:space="preserve" text-anchor="start" x="787.38" y="-732.88" font-family="Microsoft YaHei" font-size="9.20">EXT external_user_id : varchar</text>
<text xml:space="preserve" text-anchor="start" x="787.38" y="-710.12" font-family="Microsoft YaHei" font-size="9.20">title : varchar</text>
<text xml:space="preserve" text-anchor="start" x="787.38" y="-687.38" font-family="Microsoft YaHei" font-size="9.20">status : active / archived</text>
<text xml:space="preserve" text-anchor="start" x="787.38" y="-664.62" font-family="Microsoft YaHei" font-size="9.20">created_at / updated_at / deleted_at?</text>
<polygon fill="none" stroke="#2f5d7c" points="781.38,-655.62 781.38,-794.12 960.62,-794.12 960.62,-655.62 781.38,-655.62"/>
</g>
<!-- messages -->
<g id="node2" class="node">
<title>messages</title>
<polygon fill="#5b9bd5" stroke="none" points="812.5,-501.75 812.5,-524.5 1041.5,-524.5 1041.5,-501.75 812.5,-501.75"/>
<text xml:space="preserve" text-anchor="start" x="885.38" y="-511.76" font-family="Microsoft YaHei" font-weight="bold" font-size="9.20" fill="white">messages 对话消息</text>
<text xml:space="preserve" text-anchor="start" x="817.5" y="-487" font-family="Microsoft YaHei" font-size="9.20">PK id : uuid</text>
<text xml:space="preserve" text-anchor="start" x="817.5" y="-464.25" font-family="Microsoft YaHei" font-size="9.20">FK conversation_id</text>
<text xml:space="preserve" text-anchor="start" x="817.5" y="-441.5" font-family="Microsoft YaHei" font-size="9.20">role : user / assistant / system</text>
<text xml:space="preserve" text-anchor="start" x="817.5" y="-418.75" font-family="Microsoft YaHei" font-size="9.20">sequence_no : integer</text>
<text xml:space="preserve" text-anchor="start" x="817.5" y="-396" font-family="Microsoft YaHei" font-size="9.20">status : streaming / completed / stopped / failed</text>
<text xml:space="preserve" text-anchor="start" x="817.5" y="-373.25" font-family="Microsoft YaHei" font-size="9.20">model_name? / error_code? / error_message?</text>
<text xml:space="preserve" text-anchor="start" x="817.5" y="-350.5" font-family="Microsoft YaHei" font-size="9.20">created_at / completed_at?</text>
<text xml:space="preserve" text-anchor="start" x="817.5" y="-329.76" font-family="Microsoft YaHei" font-style="italic" font-size="9.20">UK(conversation_id, sequence_no)</text>
<polygon fill="none" stroke="#2f5d7c" points="811.5,-318.75 811.5,-525.5 1042.5,-525.5 1042.5,-318.75 811.5,-318.75"/>
</g>
<!-- conversations&#45;&gt;messages -->
<g id="edge1" class="edge">
<title>conversations&#45;&gt;messages</title>
<path fill="none" stroke="#526d82" stroke-width="1.15" d="M886.06,-655.8C886.06,-655.8 886.06,-534.14 886.06,-534.14"/>
<polygon fill="#526d82" stroke="#526d82" stroke-width="1.15" points="888.51,-534.14 886.06,-527.14 883.61,-534.14 888.51,-534.14"/>
<text xml:space="preserve" text-anchor="middle" x="913.25" y="-559.67" font-family="Microsoft YaHei" font-size="8.50">1 : 0..N</text>
</g>
<!-- response_runs -->
<g id="node3" class="node">
<title>response_runs</title>
<polygon fill="#4472c4" stroke="none" points="1025.5,-827.25 1025.5,-850 1242.5,-850 1242.5,-827.25 1025.5,-827.25"/>
<text xml:space="preserve" text-anchor="start" x="1081.88" y="-837.26" font-family="Microsoft YaHei" font-weight="bold" font-size="9.20" fill="white">response_runs 问答运行</text>
<text xml:space="preserve" text-anchor="start" x="1030.5" y="-812.5" font-family="Microsoft YaHei" font-size="9.20">PK id : uuid</text>
<text xml:space="preserve" text-anchor="start" x="1030.5" y="-789.75" font-family="Microsoft YaHei" font-size="9.20">FK conversation_id</text>
<text xml:space="preserve" text-anchor="start" x="1030.5" y="-767" font-family="Microsoft YaHei" font-size="9.20">FK user_message_id</text>
<text xml:space="preserve" text-anchor="start" x="1030.5" y="-744.25" font-family="Microsoft YaHei" font-size="9.20">FK assistant_message_id?</text>
<text xml:space="preserve" text-anchor="start" x="1030.5" y="-721.5" font-family="Microsoft YaHei" font-size="9.20">FK qa_config_version_id / llm_config_version_id</text>
<text xml:space="preserve" text-anchor="start" x="1030.5" y="-698.75" font-family="Microsoft YaHei" font-size="9.20">request_id : varchar (幂等/追踪)</text>
<text xml:space="preserve" text-anchor="start" x="1030.5" y="-676" font-family="Microsoft YaHei" font-size="9.20">intent_type / route / confidence?</text>
<text xml:space="preserve" text-anchor="start" x="1030.5" y="-653.25" font-family="Microsoft YaHei" font-size="9.20">status / stop_reason / retry_count</text>
<text xml:space="preserve" text-anchor="start" x="1030.5" y="-630.5" font-family="Microsoft YaHei" font-size="9.20">prompt / completion / reasoning tokens</text>
<text xml:space="preserve" text-anchor="start" x="1030.5" y="-607.75" font-family="Microsoft YaHei" font-size="9.20">latency_ms / started_at / finished_at?</text>
<polygon fill="none" stroke="#2f5d7c" points="1024.5,-598.75 1024.5,-851 1243.5,-851 1243.5,-598.75 1024.5,-598.75"/>
</g>
<!-- conversations&#45;&gt;response_runs -->
<g id="edge2" class="edge">
<title>conversations&#45;&gt;response_runs</title>
<path fill="none" stroke="#526d82" stroke-width="1.15" d="M960.41,-725C960.41,-725 1016.06,-725 1016.06,-725"/>
<polygon fill="#526d82" stroke="#526d82" stroke-width="1.15" points="1016.06,-727.45 1023.06,-725 1016.06,-722.55 1016.06,-727.45"/>
</g>
<!-- messages&#45;&gt;response_runs -->
<g id="edge7" class="edge">
<title>messages&#45;&gt;response_runs</title>
<path fill="none" stroke="#526d82" stroke-width="1.15" stroke-dasharray="5,2" d="M1033.5,-525.47C1033.5,-525.47 1033.5,-590.22 1033.5,-590.22"/>
<polygon fill="#526d82" stroke="#526d82" stroke-width="1.15" points="1031.05,-590.22 1033.5,-597.22 1035.95,-590.22 1031.05,-590.22"/>
<text xml:space="preserve" text-anchor="middle" x="1081.88" y="-559.67" font-family="Microsoft YaHei" font-size="8.50">用户/助手消息关联</text>
</g>
<!-- message_blocks -->
<g id="node4" class="node">
<title>message_blocks</title>
<polygon fill="#9dc3e6" stroke="none" points="1039.5,-221.75 1039.5,-244.5 1262.5,-244.5 1262.5,-221.75 1039.5,-221.75"/>
<text xml:space="preserve" text-anchor="start" x="1071.12" y="-231.76" font-family="Microsoft YaHei" font-weight="bold" font-size="9.20">message_content_blocks 消息内容块</text>
<text xml:space="preserve" text-anchor="start" x="1044.5" y="-207" font-family="Microsoft YaHei" font-size="9.20">PK id : uuid</text>
<text xml:space="preserve" text-anchor="start" x="1044.5" y="-184.25" font-family="Microsoft YaHei" font-size="9.20">FK message_id</text>
<text xml:space="preserve" text-anchor="start" x="1044.5" y="-161.5" font-family="Microsoft YaHei" font-size="9.20">block_order : integer</text>
<text xml:space="preserve" text-anchor="start" x="1044.5" y="-138.75" font-family="Microsoft YaHei" font-size="9.20">block_type : text / displayable_reasoning / tool*</text>
<text xml:space="preserve" text-anchor="start" x="1044.5" y="-116" font-family="Microsoft YaHei" font-size="9.20">content : text</text>
<text xml:space="preserve" text-anchor="start" x="1044.5" y="-93.25" font-family="Microsoft YaHei" font-size="9.20">status : streaming / completed / stopped</text>
<text xml:space="preserve" text-anchor="start" x="1044.5" y="-70.5" font-family="Microsoft YaHei" font-size="9.20">provider_block_id? / provider_metadata? : jsonb</text>
<text xml:space="preserve" text-anchor="start" x="1044.5" y="-47.75" font-family="Microsoft YaHei" font-size="9.20">created_at / updated_at</text>
<text xml:space="preserve" text-anchor="start" x="1044.5" y="-27.01" font-family="Microsoft YaHei" font-style="italic" font-size="9.20">UK(message_id, block_order)</text>
<polygon fill="none" stroke="#2f5d7c" points="1038.5,-16 1038.5,-245.5 1263.5,-245.5 1263.5,-16 1038.5,-16"/>
</g>
<!-- messages&#45;&gt;message_blocks -->
<g id="edge3" class="edge">
<title>messages&#45;&gt;message_blocks</title>
<path fill="none" stroke="#526d82" stroke-width="1.15" d="M1022.69,-318.98C1022.69,-275.16 1022.69,-234 1022.69,-234 1022.69,-234 1029.94,-234 1029.94,-234"/>
<polygon fill="#526d82" stroke="#526d82" stroke-width="1.15" points="1029.94,-236.45 1036.94,-234 1029.94,-231.55 1029.94,-236.45"/>
<text xml:space="preserve" text-anchor="middle" x="1116.25" y="-279.68" font-family="Microsoft YaHei" font-size="8.50">1 : 1..N</text>
</g>
<!-- citations -->
<g id="node7" class="node">
<title>citations</title>
<polygon fill="#bdd7ee" stroke="none" points="746.12,-199 746.12,-221.75 1005.88,-221.75 1005.88,-199 746.12,-199"/>
<text xml:space="preserve" text-anchor="start" x="836.62" y="-209.01" font-family="Microsoft YaHei" font-weight="bold" font-size="9.20">citations 引用快照</text>
<text xml:space="preserve" text-anchor="start" x="751.12" y="-184.25" font-family="Microsoft YaHei" font-size="9.20">PK id : uuid</text>
<text xml:space="preserve" text-anchor="start" x="751.12" y="-161.5" font-family="Microsoft YaHei" font-size="9.20">FK message_id</text>
<text xml:space="preserve" text-anchor="start" x="751.12" y="-138.75" font-family="Microsoft YaHei" font-size="9.20">citation_no / char_start? / char_end?</text>
<text xml:space="preserve" text-anchor="start" x="751.12" y="-116" font-family="Microsoft YaHei" font-size="9.20">EXT external_kb_id / external_doc_id / external_chunk_id</text>
<text xml:space="preserve" text-anchor="start" x="751.12" y="-93.25" font-family="Microsoft YaHei" font-size="9.20">doc_name / quote_text / context?</text>
<text xml:space="preserve" text-anchor="start" x="751.12" y="-70.5" font-family="Microsoft YaHei" font-size="9.20">page_number? / score? / metadata? : jsonb</text>
<text xml:space="preserve" text-anchor="start" x="751.12" y="-49.76" font-family="Microsoft YaHei" font-style="italic" font-size="9.20">保存回答时快照；原文件由外部文件服务下载</text>
<polygon fill="none" stroke="#2f5d7c" points="745.12,-38.75 745.12,-222.75 1006.88,-222.75 1006.88,-38.75 745.12,-38.75"/>
</g>
<!-- messages&#45;&gt;citations -->
<g id="edge4" class="edge">
<title>messages&#45;&gt;citations</title>
<path fill="none" stroke="#526d82" stroke-width="1.15" d="M909.19,-318.99C909.19,-318.99 909.19,-231.33 909.19,-231.33"/>
<polygon fill="#526d82" stroke="#526d82" stroke-width="1.15" points="911.64,-231.33 909.19,-224.33 906.74,-231.33 911.64,-231.33"/>
<text xml:space="preserve" text-anchor="middle" x="934.88" y="-279.68" font-family="Microsoft YaHei" font-size="8.50">助手消息 1 : 0..N</text>
</g>
<!-- process_steps -->
<g id="node5" class="node">
<title>process_steps</title>
<polygon fill="#bdd7ee" stroke="none" points="1597.5,-187.62 1597.5,-210.38 1796.5,-210.38 1796.5,-187.62 1597.5,-187.62"/>
<text xml:space="preserve" text-anchor="start" x="1610.38" y="-197.63" font-family="Microsoft YaHei" font-weight="bold" font-size="9.20">response_process_steps 展示型处理步骤</text>
<text xml:space="preserve" text-anchor="start" x="1602.5" y="-172.88" font-family="Microsoft YaHei" font-size="9.20">PK id : uuid</text>
<text xml:space="preserve" text-anchor="start" x="1602.5" y="-150.12" font-family="Microsoft YaHei" font-size="9.20">FK response_run_id</text>
<text xml:space="preserve" text-anchor="start" x="1602.5" y="-127.37" font-family="Microsoft YaHei" font-size="9.20">step_order / step_type</text>
<text xml:space="preserve" text-anchor="start" x="1602.5" y="-104.62" font-family="Microsoft YaHei" font-size="9.20">label / detail? / status</text>
<text xml:space="preserve" text-anchor="start" x="1602.5" y="-81.87" font-family="Microsoft YaHei" font-size="9.20">started_at / finished_at?</text>
<text xml:space="preserve" text-anchor="start" x="1602.5" y="-61.14" font-family="Microsoft YaHei" font-style="italic" font-size="9.20">仅保存可向用户展示的步骤，不保存私有思维链</text>
<polygon fill="none" stroke="#2f5d7c" points="1596.5,-50.12 1596.5,-211.38 1797.5,-211.38 1797.5,-50.12 1596.5,-50.12"/>
</g>
<!-- response_runs&#45;&gt;process_steps -->
<g id="edge5" class="edge">
<title>response_runs&#45;&gt;process_steps</title>
<path fill="none" stroke="#526d82" stroke-width="1.15" d="M1243.22,-629C1406.94,-629 1697,-629 1697,-629 1697,-629 1697,-220.1 1697,-220.1"/>
<polygon fill="#526d82" stroke="#526d82" stroke-width="1.15" points="1699.45,-220.1 1697,-213.1 1694.55,-220.1 1699.45,-220.1"/>
<text xml:space="preserve" text-anchor="middle" x="1556.25" y="-419.68" font-family="Microsoft YaHei" font-size="8.50">1 : 0..N</text>
</g>
<!-- stream_events -->
<g id="node6" class="node">
<title>stream_events</title>
<polygon fill="#d9eaf7" stroke="none" points="1296.38,-199 1296.38,-221.75 1563.62,-221.75 1563.62,-199 1296.38,-199"/>
<text xml:space="preserve" text-anchor="start" x="1338.5" y="-209.01" font-family="Microsoft YaHei" font-weight="bold" font-size="9.20">response_stream_events SSE事件（短期）</text>
<text xml:space="preserve" text-anchor="start" x="1301.38" y="-184.25" font-family="Microsoft YaHei" font-size="9.20">PK id : bigint</text>
<text xml:space="preserve" text-anchor="start" x="1301.38" y="-161.5" font-family="Microsoft YaHei" font-size="9.20">FK response_run_id</text>
<text xml:space="preserve" text-anchor="start" x="1301.38" y="-138.75" font-family="Microsoft YaHei" font-size="9.20">event_seq : integer</text>
<text xml:space="preserve" text-anchor="start" x="1301.38" y="-116" font-family="Microsoft YaHei" font-size="9.20">event_type : intent / step / token / citation / done / error</text>
<text xml:space="preserve" text-anchor="start" x="1301.38" y="-93.25" font-family="Microsoft YaHei" font-size="9.20">payload : jsonb</text>
<text xml:space="preserve" text-anchor="start" x="1301.38" y="-70.5" font-family="Microsoft YaHei" font-size="9.20">created_at / expires_at</text>
<text xml:space="preserve" text-anchor="start" x="1301.38" y="-49.76" font-family="Microsoft YaHei" font-style="italic" font-size="9.20">UK(response_run_id, event_seq)</text>
<polygon fill="none" stroke="#2f5d7c" points="1295.38,-38.75 1295.38,-222.75 1564.62,-222.75 1564.62,-38.75 1295.38,-38.75"/>
</g>
<!-- response_runs&#45;&gt;stream_events -->
<g id="edge6" class="edge">
<title>response_runs&#45;&gt;stream_events</title>
<path fill="none" stroke="#526d82" stroke-width="1.15" d="M1243.38,-614C1327.7,-614 1430,-614 1430,-614 1430,-614 1430,-231.24 1430,-231.24"/>
<polygon fill="#526d82" stroke="#526d82" stroke-width="1.15" points="1432.45,-231.24 1430,-224.24 1427.55,-231.24 1432.45,-231.24"/>
<text xml:space="preserve" text-anchor="middle" x="1213.75" y="-419.68" font-family="Microsoft YaHei" font-size="8.50">1 : 0..N（短期）</text>
</g>
<!-- qa_config -->
<g id="node8" class="node">
<title>qa_config</title>
<polygon fill="#70ad47" stroke="none" points="506.38,-1111.62 506.38,-1134.38 719.62,-1134.38 719.62,-1111.62 506.38,-1111.62"/>
<text xml:space="preserve" text-anchor="start" x="541.38" y="-1121.63" font-family="Microsoft YaHei" font-weight="bold" font-size="9.20" fill="white">qa_config_versions 问答配置版本</text>
<text xml:space="preserve" text-anchor="start" x="511.38" y="-1096.88" font-family="Microsoft YaHei" font-size="9.20">PK id : uuid</text>
<text xml:space="preserve" text-anchor="start" x="511.38" y="-1074.12" font-family="Microsoft YaHei" font-size="9.20">UK version_no : bigint</text>
<text xml:space="preserve" text-anchor="start" x="511.38" y="-1051.38" font-family="Microsoft YaHei" font-size="9.20">top_k / similarity_threshold</text>
<text xml:space="preserve" text-anchor="start" x="511.38" y="-1028.62" font-family="Microsoft YaHei" font-size="9.20">use_rerank / rerank_threshold / rerank_top_n</text>
<text xml:space="preserve" text-anchor="start" x="511.38" y="-1005.88" font-family="Microsoft YaHei" font-size="9.20">is_active / created_at</text>
<text xml:space="preserve" text-anchor="start" x="511.38" y="-983.12" font-family="Microsoft YaHei" font-size="9.20">EXT created_by_user_id</text>
<polygon fill="none" stroke="#548235" points="505.38,-974.12 505.38,-1135.38 720.62,-1135.38 720.62,-974.12 505.38,-974.12"/>
</g>
<!-- qa_config&#45;&gt;response_runs -->
<g id="edge9" class="edge">
<title>qa_config&#45;&gt;response_runs</title>
<path fill="none" stroke="#526d82" stroke-width="1.15" d="M648.62,-974.35C648.62,-907.41 648.62,-823 648.62,-823 648.62,-823 1016.03,-823 1016.03,-823"/>
<polygon fill="#526d82" stroke="#526d82" stroke-width="1.15" points="1016.03,-825.45 1023.03,-823 1016.03,-820.55 1016.03,-825.45"/>
<text xml:space="preserve" text-anchor="middle" x="1054.88" y="-923.67" font-family="Microsoft YaHei" font-size="8.50">配置快照 1 : 0..N</text>
</g>
<!-- qa_config_kb -->
<g id="node9" class="node">
<title>qa_config_kb</title>
<polygon fill="#c6e0b4" stroke="none" points="507.12,-759 507.12,-781.75 718.88,-781.75 718.88,-759 507.12,-759"/>
<text xml:space="preserve" text-anchor="start" x="525.25" y="-769.01" font-family="Microsoft YaHei" font-weight="bold" font-size="9.20">qa_config_knowledge_bases 配置知识库</text>
<text xml:space="preserve" text-anchor="start" x="512.12" y="-744.25" font-family="Microsoft YaHei" font-size="9.20">PK/FK config_id</text>
<text xml:space="preserve" text-anchor="start" x="512.12" y="-721.5" font-family="Microsoft YaHei" font-size="9.20">PK EXT external_kb_id</text>
<text xml:space="preserve" text-anchor="start" x="512.12" y="-698.75" font-family="Microsoft YaHei" font-size="9.20">kb_type : terminology / technical_supervision</text>
<text xml:space="preserve" text-anchor="start" x="512.12" y="-676" font-family="Microsoft YaHei" font-size="9.20">display_name_snapshot? / sort_order</text>
<polygon fill="none" stroke="#548235" points="506.12,-667 506.12,-782.75 719.88,-782.75 719.88,-667 506.12,-667"/>
</g>
<!-- qa_config&#45;&gt;qa_config_kb -->
<g id="edge8" class="edge">
<title>qa_config&#45;&gt;qa_config_kb</title>
<path fill="none" stroke="#526d82" stroke-width="1.15" d="M577.38,-974.48C577.38,-974.48 577.38,-791.39 577.38,-791.39"/>
<polygon fill="#526d82" stroke="#526d82" stroke-width="1.15" points="579.83,-791.39 577.38,-784.39 574.93,-791.39 579.83,-791.39"/>
<text xml:space="preserve" text-anchor="middle" x="627.25" y="-923.67" font-family="Microsoft YaHei" font-size="8.50">1 : 1..N</text>
</g>
<!-- retrieval_runs -->
<g id="node12" class="node">
<title>retrieval_runs</title>
<polygon fill="#ffd966" stroke="none" points="1823.25,-781.75 1823.25,-804.5 2020.75,-804.5 2020.75,-781.75 1823.25,-781.75"/>
<text xml:space="preserve" text-anchor="start" x="1851.88" y="-791.76" font-family="Microsoft YaHei" font-weight="bold" font-size="9.20">retrieval_test_runs 检索测试运行</text>
<text xml:space="preserve" text-anchor="start" x="1828.25" y="-767" font-family="Microsoft YaHei" font-size="9.20">PK id : uuid</text>
<text xml:space="preserve" text-anchor="start" x="1828.25" y="-744.25" font-family="Microsoft YaHei" font-size="9.20">FK qa_config_version_id?</text>
<text xml:space="preserve" text-anchor="start" x="1828.25" y="-721.5" font-family="Microsoft YaHei" font-size="9.20">EXT external_user_id</text>
<text xml:space="preserve" text-anchor="start" x="1828.25" y="-698.75" font-family="Microsoft YaHei" font-size="9.20">query / overrides : jsonb</text>
<text xml:space="preserve" text-anchor="start" x="1828.25" y="-676" font-family="Microsoft YaHei" font-size="9.20">status / result_count / latency_ms / error?</text>
<text xml:space="preserve" text-anchor="start" x="1828.25" y="-653.25" font-family="Microsoft YaHei" font-size="9.20">created_at / finished_at?</text>
<polygon fill="none" stroke="#806000" points="1822.25,-644.25 1822.25,-805.5 2021.75,-805.5 2021.75,-644.25 1822.25,-644.25"/>
</g>
<!-- qa_config&#45;&gt;retrieval_runs -->
<g id="edge11" class="edge">
<title>qa_config&#45;&gt;retrieval_runs</title>
<path fill="none" stroke="#526d82" stroke-width="1.15" d="M720.4,-1055C1033.28,-1055 1922,-1055 1922,-1055 1922,-1055 1922,-813.95 1922,-813.95"/>
<polygon fill="#526d82" stroke="#526d82" stroke-width="1.15" points="1924.45,-813.95 1922,-806.95 1919.55,-813.95 1924.45,-813.95"/>
<text xml:space="preserve" text-anchor="middle" x="1542.12" y="-923.67" font-family="Microsoft YaHei" font-size="8.50">0..1 : 0..N</text>
</g>
<!-- llm_config -->
<g id="node10" class="node">
<title>llm_config</title>
<polygon fill="#70ad47" stroke="none" points="258,-1123 258,-1145.75 472,-1145.75 472,-1123 258,-1123"/>
<text xml:space="preserve" text-anchor="start" x="290.38" y="-1133.01" font-family="Microsoft YaHei" font-weight="bold" font-size="9.20" fill="white">llm_config_versions LLM配置版本</text>
<text xml:space="preserve" text-anchor="start" x="263" y="-1108.25" font-family="Microsoft YaHei" font-size="9.20">PK id : uuid</text>
<text xml:space="preserve" text-anchor="start" x="263" y="-1085.5" font-family="Microsoft YaHei" font-size="9.20">UK version_no : bigint</text>
<text xml:space="preserve" text-anchor="start" x="263" y="-1062.75" font-family="Microsoft YaHei" font-size="9.20">provider / api_url / model_name</text>
<text xml:space="preserve" text-anchor="start" x="263" y="-1040" font-family="Microsoft YaHei" font-size="9.20">api_key_secret_ref / api_key_last4</text>
<text xml:space="preserve" text-anchor="start" x="263" y="-1017.25" font-family="Microsoft YaHei" font-size="9.20">timeout_seconds / temperature / max_tokens</text>
<text xml:space="preserve" text-anchor="start" x="263" y="-994.5" font-family="Microsoft YaHei" font-size="9.20">is_active / created_at</text>
<text xml:space="preserve" text-anchor="start" x="263" y="-973.76" font-family="Microsoft YaHei" font-style="italic" font-size="9.20">密钥正文存密钥服务；留空更新表示保持原值</text>
<polygon fill="none" stroke="#548235" points="257,-962.75 257,-1146.75 473,-1146.75 473,-962.75 257,-962.75"/>
</g>
<!-- llm_config&#45;&gt;response_runs -->
<g id="edge10" class="edge">
<title>llm_config&#45;&gt;response_runs</title>
<path fill="none" stroke="#526d82" stroke-width="1.15" d="M472.74,-968C684.38,-968 1134,-968 1134,-968 1134,-968 1134,-859.45 1134,-859.45"/>
<polygon fill="#526d82" stroke="#526d82" stroke-width="1.15" points="1136.45,-859.45 1134,-852.45 1131.55,-859.45 1136.45,-859.45"/>
<text xml:space="preserve" text-anchor="middle" x="872.88" y="-923.67" font-family="Microsoft YaHei" font-size="8.50">模型配置 1 : 0..N</text>
</g>
<!-- audit_logs -->
<g id="node11" class="node">
<title>audit_logs</title>
<polygon fill="#f4b183" stroke="none" points="16.88,-1100.25 16.88,-1123 191.12,-1123 191.12,-1100.25 16.88,-1100.25"/>
<text xml:space="preserve" text-anchor="start" x="44.38" y="-1110.26" font-family="Microsoft YaHei" font-weight="bold" font-size="9.20">admin_audit_logs 管理审计</text>
<text xml:space="preserve" text-anchor="start" x="21.88" y="-1085.5" font-family="Microsoft YaHei" font-size="9.20">PK id : uuid</text>
<text xml:space="preserve" text-anchor="start" x="21.88" y="-1062.75" font-family="Microsoft YaHei" font-size="9.20">EXT external_user_id</text>
<text xml:space="preserve" text-anchor="start" x="21.88" y="-1040" font-family="Microsoft YaHei" font-size="9.20">action / target_type / target_id?</text>
<text xml:space="preserve" text-anchor="start" x="21.88" y="-1017.25" font-family="Microsoft YaHei" font-size="9.20">before_data / after_data : jsonb</text>
<text xml:space="preserve" text-anchor="start" x="21.88" y="-994.5" font-family="Microsoft YaHei" font-size="9.20">request_id / ip_address? / created_at</text>
<polygon fill="none" stroke="#7f6000" points="15.88,-985.5 15.88,-1124 192.12,-1124 192.12,-985.5 15.88,-985.5"/>
</g>
<!-- audit_logs&#45;&gt;qa_config -->
<g id="edge13" class="edge">
<title>audit_logs&#45;&gt;qa_config</title>
<path fill="none" stroke="#526d82" stroke-width="1.15" stroke-dasharray="1,5" d="M104,-1123.95C104,-1146.1 104,-1165 104,-1165 104,-1165 613,-1165 613,-1165 613,-1165 613,-1152.12 613,-1135.16"/>
<text xml:space="preserve" text-anchor="middle" x="349" y="-1219.42" font-family="Microsoft YaHei" font-size="8.50">审计目标</text>
</g>
<!-- audit_logs&#45;&gt;llm_config -->
<g id="edge14" class="edge">
<title>audit_logs&#45;&gt;llm_config</title>
<path fill="none" stroke="#526d82" stroke-width="1.15" stroke-dasharray="1,5" d="M192,-1055C212.87,-1055 235.36,-1055 257,-1055"/>
</g>
<!-- retrieval_results -->
<g id="node13" class="node">
<title>retrieval_results</title>
<polygon fill="#ffe699" stroke="none" points="2086.62,-781.75 2086.62,-804.5 2313.38,-804.5 2313.38,-781.75 2086.62,-781.75"/>
<text xml:space="preserve" text-anchor="start" x="2124.62" y="-791.76" font-family="Microsoft YaHei" font-weight="bold" font-size="9.20">retrieval_test_results 检索测试结果</text>
<text xml:space="preserve" text-anchor="start" x="2091.62" y="-767" font-family="Microsoft YaHei" font-size="9.20">PK id : uuid</text>
<text xml:space="preserve" text-anchor="start" x="2091.62" y="-744.25" font-family="Microsoft YaHei" font-size="9.20">FK test_run_id</text>
<text xml:space="preserve" text-anchor="start" x="2091.62" y="-721.5" font-family="Microsoft YaHei" font-size="9.20">rank_no</text>
<text xml:space="preserve" text-anchor="start" x="2091.62" y="-698.75" font-family="Microsoft YaHei" font-size="9.20">EXT external_kb_id / doc_id / chunk_id</text>
<text xml:space="preserve" text-anchor="start" x="2091.62" y="-676" font-family="Microsoft YaHei" font-size="9.20">doc_name / text_snapshot</text>
<text xml:space="preserve" text-anchor="start" x="2091.62" y="-653.25" font-family="Microsoft YaHei" font-size="9.20">vector_score / rerank_score? / metadata? : jsonb</text>
<polygon fill="none" stroke="#806000" points="2085.62,-644.25 2085.62,-805.5 2314.38,-805.5 2314.38,-644.25 2085.62,-644.25"/>
</g>
<!-- retrieval_runs&#45;&gt;retrieval_results -->
<g id="edge12" class="edge">
<title>retrieval_runs&#45;&gt;retrieval_results</title>
<path fill="none" stroke="#526d82" stroke-width="1.15" d="M2021.58,-725C2021.58,-725 2077.24,-725 2077.24,-725"/>
<polygon fill="#526d82" stroke="#526d82" stroke-width="1.15" points="2077.24,-727.45 2084.24,-725 2077.24,-722.55 2077.24,-727.45"/>
</g>
<!-- legend -->
<g id="node14" class="node">
<title>legend</title>
<polygon fill="#f2f2f2" stroke="none" points="2347.12,-759 2347.12,-781.75 2684.88,-781.75 2684.88,-759 2347.12,-759"/>
<text xml:space="preserve" text-anchor="start" x="2493.5" y="-769.01" font-family="Microsoft YaHei" font-weight="bold" font-size="9.20">图例与边界</text>
<text xml:space="preserve" text-anchor="start" x="2352.12" y="-744.25" font-family="Microsoft YaHei" font-size="9.20">PK 主键；FK 本系统外键；EXT 外部系统标识，不建本地主数据表</text>
<text xml:space="preserve" text-anchor="start" x="2352.12" y="-721.5" font-family="Microsoft YaHei" font-size="9.20">用户、角色、知识库、文档/文件由其他小组服务维护</text>
<text xml:space="preserve" text-anchor="start" x="2352.12" y="-698.75" font-family="Microsoft YaHei" font-size="9.20">近30天问答统计由 response_runs 聚合，不重复建统计事实表</text>
<text xml:space="preserve" text-anchor="start" x="2352.12" y="-676" font-family="Microsoft YaHei" font-size="9.20">* tool 内容块为兼容扩展，当前智能问答核心只需 text / displayable_reasoning</text>
<polygon fill="none" stroke="#999999" points="2346.12,-667 2346.12,-782.75 2685.88,-782.75 2685.88,-667 2346.12,-667"/>
</g>
</g>
</svg>
